<svg xmlns="http://www.w3.org/2000/svg" width="24" height="25" viewBox="0 0 24 25" fill="none">
  <path d="M20.47 2.4999H3.53C3.33958 2.49725 3.1505 2.53214 2.97356 2.60258C2.79663 2.67302 2.6353 2.77762 2.4988 2.91041C2.36229 3.0432 2.25328 3.20158 2.17799 3.37651C2.1027 3.55143 2.06261 3.73947 2.06 3.9299V21.0699C2.06261 21.2603 2.1027 21.4484 2.17799 21.6233C2.25328 21.7982 2.36229 21.9566 2.4988 22.0894C2.6353 22.2222 2.79663 22.3268 2.97356 22.3972C3.1505 22.4676 3.33958 22.5025 3.53 22.4999H20.47C20.6604 22.5025 20.8495 22.4676 21.0264 22.3972C21.2034 22.3268 21.3647 22.2222 21.5012 22.0894C21.6377 21.9566 21.7467 21.7982 21.822 21.6233C21.8973 21.4484 21.9374 21.2603 21.94 21.0699V3.9299C21.9374 3.73947 21.8973 3.55143 21.822 3.37651C21.7467 3.20158 21.6377 3.0432 21.5012 2.91041C21.3647 2.77762 21.2034 2.67302 21.0264 2.60258C20.8495 2.53214 20.6604 2.49725 20.47 2.4999ZM8.09 19.2399H5.09V10.2399H8.09V19.2399ZM6.59 8.9799C6.17626 8.9799 5.77947 8.81554 5.48691 8.52298C5.19435 8.23043 5.03 7.83363 5.03 7.4199C5.03 7.00616 5.19435 6.60937 5.48691 6.31681C5.77947 6.02425 6.17626 5.8599 6.59 5.8599C6.80969 5.83498 7.03217 5.85675 7.24287 5.92378C7.45357 5.99081 7.64774 6.10159 7.81265 6.24886C7.97757 6.39613 8.10952 6.57657 8.19987 6.77838C8.29021 6.98018 8.33692 7.19879 8.33692 7.4199C8.33692 7.641 8.29021 7.85961 8.19987 8.06141C8.10952 8.26322 7.97757 8.44366 7.81265 8.59093C7.64774 8.73821 7.45357 8.84898 7.24287 8.91601C7.03217 8.98304 6.80969 9.00481 6.59 8.9799ZM18.91 19.2399H15.91V14.4099C15.91 13.1999 15.48 12.4099 14.39 12.4099C14.0527 12.4124 13.7242 12.5182 13.4488 12.7131C13.1735 12.908 12.9645 13.1826 12.85 13.4999C12.7717 13.7349 12.7378 13.9825 12.75 14.2299V19.2299H9.75C9.75 19.2299 9.75 11.0499 9.75 10.2299H12.75V11.4999C13.0225 11.027 13.4189 10.6374 13.8964 10.3731C14.374 10.1088 14.9146 9.97975 15.46 9.9999C17.46 9.9999 18.91 11.2899 18.91 14.0599V19.2399Z" fill="white"/>
</svg>