<svg width="164" height="31" viewBox="0 0 164 31" fill="none" xmlns="http://www.w3.org/2000/svg">
<path d="M17.6424 29.0199C17.4931 29.0199 17.3011 28.8065 17.0664 28.3799C16.9811 28.1665 16.8851 27.9212 16.7784 27.6439C16.6931 27.3879 16.6291 27.0892 16.5864 26.7479C15.9251 27.1532 15.3277 27.3559 14.7944 27.3559C13.4504 27.3559 12.7784 26.2465 12.7784 24.0279C12.7784 23.0892 12.9171 21.9905 13.1944 20.7319C13.4931 19.4732 13.9731 18.0652 14.6344 16.5079L18.0264 8.66788C18.3037 8.04921 18.4957 7.47322 18.6024 6.93988C18.7091 6.40655 18.7624 5.92655 18.7624 5.49988C18.7624 3.60122 17.6531 2.65188 15.4344 2.65188C12.8744 2.65188 10.0797 3.75055 7.05041 5.94788C3.91441 8.23055 2.05841 10.6199 1.48241 13.1159C1.35441 13.6492 1.29041 14.1399 1.29041 14.5879C1.29041 16.5719 2.31441 17.5639 4.36241 17.5639C4.49041 17.5639 4.61841 17.5639 4.74641 17.5639C4.87441 17.5425 5.01308 17.5319 5.16241 17.5319C5.95174 17.4252 6.80508 17.0625 7.72241 16.4439C8.66108 15.8252 9.11974 15.5159 9.09841 15.5159C9.20508 15.5159 9.25841 15.5479 9.25841 15.6119C9.25841 15.7185 9.17308 15.8572 9.00241 16.0279C8.36241 16.7319 7.63708 17.2545 6.82641 17.5959C6.03708 17.9159 5.16241 18.0759 4.20241 18.0759C1.51441 18.0759 0.17041 16.8385 0.17041 14.3639C0.17041 13.8732 0.23441 13.3612 0.36241 12.8279C0.959743 10.0972 3.00774 7.59055 6.50641 5.30788C9.74908 3.17455 12.8424 2.10788 15.7864 2.10788C18.7944 2.10788 20.2984 3.39855 20.2984 5.97988C20.2984 6.42788 20.2557 6.89722 20.1704 7.38788C20.0851 7.87855 19.9251 8.40122 19.6904 8.95588L16.3944 16.8279C15.7117 18.4492 15.2104 19.8999 14.8904 21.1799C14.5917 22.4385 14.4424 23.4839 14.4424 24.3159C14.4424 25.8092 14.7837 26.5559 15.4664 26.5559C15.6371 26.5559 15.7971 26.5345 15.9464 26.4919C16.1171 26.4492 16.3091 26.3745 16.5224 26.2679C16.5011 26.0332 16.4797 25.7985 16.4584 25.5639C16.4584 25.3292 16.4584 25.0945 16.4584 24.8599C16.4584 23.9212 16.5331 22.9825 16.6824 22.0439C16.8531 21.1052 17.0771 20.1452 17.3544 19.1639C17.2477 18.9932 17.1944 18.7905 17.1944 18.5559C17.1944 18.2145 17.4184 17.9052 17.8664 17.6279C18.7411 15.1319 19.5837 13.0092 20.3944 11.2599C21.2051 9.51055 22.0051 8.13455 22.7944 7.13188C23.6477 6.00121 24.5117 5.43588 25.3864 5.43588C25.8131 5.43588 26.1651 5.57455 26.4424 5.85188C26.7411 6.12921 26.8477 6.37455 26.7624 6.58788C26.7411 6.71588 26.6664 6.77988 26.5384 6.77988C26.4104 6.73722 26.3464 6.67321 26.3464 6.58788C26.3251 6.03322 26.1224 5.75588 25.7384 5.75588C25.0131 5.75588 24.2024 6.33188 23.3064 7.48388C22.4744 8.55055 21.6424 9.92655 20.8104 11.6119C19.9997 13.2972 19.1784 15.2919 18.3464 17.5959C18.6664 18.1079 19.1251 18.3425 19.7224 18.2999V18.3319C19.7224 18.3959 19.6797 18.4812 19.5944 18.5879C19.5091 18.6945 19.3491 18.8012 19.1144 18.9079C18.9224 19.0572 18.7304 19.1959 18.5384 19.3239C18.3464 19.4519 18.1544 19.5799 17.9624 19.7079L17.7064 19.5479C17.4291 20.4439 17.2157 21.3185 17.0664 22.1719C16.9384 23.0252 16.8744 23.8572 16.8744 24.6679C16.8744 24.9025 16.8744 25.1265 16.8744 25.3399C16.8957 25.5532 16.9171 25.7772 16.9384 26.0119C18.7517 24.8385 20.9597 22.2572 23.5624 18.2679C24.8211 16.3692 25.8131 14.7052 26.5384 13.2759C27.2637 11.8252 27.7437 10.6092 27.9784 9.62788C28.1704 8.85988 28.6291 8.47588 29.3544 8.47588C29.8024 8.47588 30.0264 8.60388 30.0264 8.85988L29.8024 9.65988C27.9891 14.9505 27.0824 19.0145 27.0824 21.8519C27.0824 24.7532 27.7117 26.2039 28.9704 26.2039C29.6104 26.2039 30.3357 25.7559 31.1464 24.8599C31.9784 23.9639 32.8424 22.5985 33.7384 20.7639L37.1944 13.6599C38.1117 11.7825 38.9971 10.1292 39.8504 8.69988C40.7037 7.27055 41.5037 6.04388 42.2504 5.01988C44.2771 2.22521 46.0477 0.827881 47.5624 0.827881C48.5011 0.827881 48.9704 1.06255 48.9704 1.53188C48.9704 1.87321 48.5651 2.04388 47.7544 2.04388C45.4931 2.04388 42.8691 4.66788 39.8824 9.91588C38.9437 11.7932 38.0051 13.6599 37.0664 15.5159C36.1277 17.3719 35.1784 19.2279 34.2184 21.0839C32.1491 24.8812 30.3571 26.7799 28.8424 26.7799C26.6237 26.7799 25.5144 25.2225 25.5144 22.1079C25.5144 21.1692 25.6104 20.0705 25.8024 18.8119C26.0157 17.5532 26.3144 16.1452 26.6984 14.5879C24.7997 17.6812 23.0397 20.2199 21.4184 22.2039C19.7971 24.1879 18.3251 25.6279 17.0024 26.5239C17.1091 27.1852 17.2584 27.7399 17.4504 28.1879C17.6637 28.6572 17.7384 28.9239 17.6744 28.9879L17.6424 29.0199Z" fill="white"/>
<path d="M37.9139 26.0759C37.0392 26.0759 36.6019 25.6492 36.6019 24.7959C36.6019 23.9852 37.1886 22.8545 38.3619 21.4039C39.4286 20.0599 40.3566 19.1319 41.1459 18.6199C41.9352 18.1079 42.6712 17.8519 43.3539 17.8519C44.1646 17.8519 44.5699 18.0865 44.5699 18.5559C44.5699 18.6625 44.4632 18.8225 44.2499 19.0359C44.0366 19.2279 43.9192 19.3452 43.8979 19.3879C43.4926 20.0492 43.2899 21.3932 43.2899 23.4199C43.2899 24.5932 43.5459 25.1799 44.0579 25.1799C44.5272 25.1799 45.0712 24.9025 45.6899 24.3479C46.3086 23.7932 46.8846 23.1745 47.4179 22.4919C47.4819 22.4279 47.5352 22.3959 47.5779 22.3959C47.6632 22.3959 47.7059 22.4492 47.7059 22.5559C47.7059 22.5985 47.6846 22.6732 47.6419 22.7799C47.6206 22.8865 47.5886 22.9719 47.5459 23.0359C46.6712 24.2092 45.9139 24.9985 45.2739 25.4039C44.6552 25.8092 44.0472 26.0119 43.4499 26.0119C42.4899 26.0119 42.0206 24.9879 42.0419 22.9399C41.6366 23.6652 41.0499 24.3479 40.2819 24.9879C39.3859 25.7132 38.5966 26.0759 37.9139 26.0759ZM38.7779 25.2119C39.1406 25.2119 39.5246 25.0625 39.9299 24.7639C41.1886 23.7612 42.0099 21.8839 42.3939 19.1319C42.3299 19.1319 42.2872 19.1212 42.2659 19.0999C41.8392 19.0999 41.2739 19.3559 40.5699 19.8679C39.9726 20.2732 39.4926 20.7105 39.1299 21.1799C38.2766 22.2892 37.8499 23.2492 37.8499 24.0599C37.8499 24.8279 38.1592 25.2119 38.7779 25.2119Z" fill="white"/>
<path d="M52.5257 26.0439C51.7577 26.0439 51.3737 25.5639 51.3737 24.6039C51.3737 24.0919 51.5657 23.4519 51.9497 22.6839C52.3123 21.8305 52.4937 21.2119 52.4937 20.8279C52.4937 20.5505 52.387 20.3372 52.1737 20.1879C51.9817 20.0385 51.7363 19.8999 51.4377 19.7719C51.2243 19.6652 51.0003 19.5372 50.7657 19.3879C50.531 19.2385 50.339 19.0892 50.1897 18.9399C50.0403 19.2599 49.7097 19.8145 49.1977 20.6039C48.6857 21.3932 48.131 22.2039 47.5337 23.0359C47.4483 23.1425 47.363 23.1959 47.2777 23.1959C47.1923 23.1959 47.1497 23.1212 47.1497 22.9719C47.1497 22.8225 47.235 22.6625 47.4057 22.4919C47.5763 22.2785 47.8217 21.9372 48.1417 21.4679C48.4617 20.9772 48.7817 20.4545 49.1017 19.8999C49.4217 19.3239 49.667 18.8225 49.8377 18.3959C49.731 18.0332 49.6457 17.7239 49.5817 17.4679C49.5177 17.2119 49.4857 16.9559 49.4857 16.6999C49.4857 16.2519 49.6137 15.8465 49.8697 15.4839C50.1257 15.1212 50.4563 14.9399 50.8617 14.9399C51.4377 14.9399 51.7257 15.2812 51.7257 15.9639C51.7257 16.7105 51.4377 17.4892 50.8617 18.2999C50.947 18.4279 51.0537 18.5345 51.1817 18.6199C51.3097 18.7052 51.5123 18.8012 51.7897 18.9079C51.939 18.9719 52.0777 19.0145 52.2057 19.0359C52.355 19.0572 52.483 19.0679 52.5897 19.0679C52.7603 19.0679 52.899 19.0572 53.0057 19.0359C53.1337 19.0145 53.2403 19.0039 53.3257 19.0039C53.4537 19.0039 53.603 19.0785 53.7737 19.2279C53.9657 19.3559 54.0617 19.5585 54.0617 19.8359C54.0617 19.9852 54.051 20.0812 54.0297 20.1239C54.0083 20.1665 53.9443 20.3479 53.8377 20.6679C53.7523 20.9665 53.5923 21.3932 53.3577 21.9479C52.931 23.0572 52.7177 23.8359 52.7177 24.2839C52.7177 24.8812 52.9203 25.1799 53.3257 25.1799C53.7737 25.1799 54.307 24.9132 54.9257 24.3799C55.5657 23.8465 56.1523 23.2172 56.6857 22.4919C56.7497 22.4279 56.803 22.3959 56.8457 22.3959C56.931 22.3959 56.9737 22.4705 56.9737 22.6199C56.9737 22.7692 56.9203 22.9079 56.8137 23.0359C55.9603 24.1665 55.1923 24.9559 54.5097 25.4039C53.827 25.8305 53.1657 26.0439 52.5257 26.0439Z" fill="white"/>
<path d="M61.7757 26.0439C61.0077 26.0439 60.6237 25.5639 60.6237 24.6039C60.6237 24.0919 60.8157 23.4519 61.1997 22.6839C61.5623 21.8305 61.7437 21.2119 61.7437 20.8279C61.7437 20.5505 61.637 20.3372 61.4237 20.1879C61.2317 20.0385 60.9863 19.8999 60.6877 19.7719C60.4743 19.6652 60.2503 19.5372 60.0157 19.3879C59.781 19.2385 59.589 19.0892 59.4397 18.9399C59.2903 19.2599 58.9597 19.8145 58.4477 20.6039C57.9357 21.3932 57.381 22.2039 56.7837 23.0359C56.6983 23.1425 56.613 23.1959 56.5277 23.1959C56.4423 23.1959 56.3997 23.1212 56.3997 22.9719C56.3997 22.8225 56.485 22.6625 56.6557 22.4919C56.8263 22.2785 57.0717 21.9372 57.3917 21.4679C57.7117 20.9772 58.0317 20.4545 58.3517 19.8999C58.6717 19.3239 58.917 18.8225 59.0877 18.3959C58.981 18.0332 58.8957 17.7239 58.8317 17.4679C58.7677 17.2119 58.7357 16.9559 58.7357 16.6999C58.7357 16.2519 58.8637 15.8465 59.1197 15.4839C59.3757 15.1212 59.7063 14.9399 60.1117 14.9399C60.6877 14.9399 60.9757 15.2812 60.9757 15.9639C60.9757 16.7105 60.6877 17.4892 60.1117 18.2999C60.197 18.4279 60.3037 18.5345 60.4317 18.6199C60.5597 18.7052 60.7623 18.8012 61.0397 18.9079C61.189 18.9719 61.3277 19.0145 61.4557 19.0359C61.605 19.0572 61.733 19.0679 61.8397 19.0679C62.0103 19.0679 62.149 19.0572 62.2557 19.0359C62.3837 19.0145 62.4903 19.0039 62.5757 19.0039C62.7037 19.0039 62.853 19.0785 63.0237 19.2279C63.2157 19.3559 63.3117 19.5585 63.3117 19.8359C63.3117 19.9852 63.301 20.0812 63.2797 20.1239C63.2583 20.1665 63.1943 20.3479 63.0877 20.6679C63.0023 20.9665 62.8423 21.3932 62.6077 21.9479C62.181 23.0572 61.9677 23.8359 61.9677 24.2839C61.9677 24.8812 62.1703 25.1799 62.5757 25.1799C63.0237 25.1799 63.557 24.9132 64.1757 24.3799C64.8157 23.8465 65.4023 23.2172 65.9357 22.4919C65.9997 22.4279 66.053 22.3959 66.0957 22.3959C66.181 22.3959 66.2237 22.4705 66.2237 22.6199C66.2237 22.7692 66.1703 22.9079 66.0637 23.0359C65.2103 24.1665 64.4423 24.9559 63.7597 25.4039C63.077 25.8305 62.4157 26.0439 61.7757 26.0439Z" fill="white"/>
<path d="M69.1057 26.1399C68.231 26.1399 67.4737 25.8945 66.8337 25.4039C66.215 24.8919 65.9057 24.1239 65.9057 23.0999C65.9057 21.9692 66.279 20.8065 67.0257 19.6119C67.4097 18.9932 67.879 18.5025 68.4337 18.1399C68.9883 17.7559 69.479 17.5639 69.9057 17.5639C70.5243 17.5639 70.8337 17.9372 70.8337 18.6839C70.8337 19.3239 70.407 20.1025 69.5537 21.0199C68.7643 21.8305 68.0177 22.3852 67.3137 22.6839C67.2923 22.7692 67.271 22.8652 67.2497 22.9719C67.2497 23.0572 67.2497 23.1532 67.2497 23.2599C67.2497 24.6039 68.0497 25.2759 69.6497 25.2759C70.567 25.2759 71.4203 24.9985 72.2097 24.4439C73.0203 23.8679 73.7243 23.2172 74.3217 22.4919C74.4283 22.3639 74.5243 22.2999 74.6097 22.2999C74.695 22.2999 74.7377 22.3425 74.7377 22.4279C74.7377 22.5132 74.695 22.6305 74.6097 22.7799C74.5243 22.9079 74.4603 22.9932 74.4177 23.0359C74.0763 23.5052 73.7137 23.9212 73.3297 24.2839C72.967 24.6465 72.4763 24.9985 71.8577 25.3399C71.4097 25.6172 70.9403 25.8199 70.4497 25.9479C69.9803 26.0759 69.5323 26.1399 69.1057 26.1399ZM67.4417 22.0119C67.719 21.8625 67.9857 21.6919 68.2417 21.4999C68.519 21.2865 68.7857 21.0412 69.0417 20.7639C69.6177 20.0812 69.9057 19.4839 69.9057 18.9719C69.9057 18.6519 69.8097 18.4919 69.6177 18.4919C69.447 18.4919 69.223 18.6412 68.9457 18.9399C68.6897 19.2172 68.4443 19.5692 68.2097 19.9959C67.8043 20.8279 67.5483 21.4999 67.4417 22.0119Z" fill="white"/>
<path d="M74.1527 26.1719C74.0033 26.1719 73.8433 26.0759 73.6727 25.8839C73.5233 25.6919 73.4487 25.5212 73.4487 25.3719V25.2759L73.7367 24.7319C73.9073 24.2412 74.078 23.6545 74.2487 22.9719C74.4193 22.2679 74.5793 21.4679 74.7287 20.5719C74.75 20.3585 74.782 20.1345 74.8247 19.8999C74.8673 19.6439 74.91 19.3559 74.9527 19.0359C75.0593 18.6092 75.39 18.3959 75.9447 18.3959C76.1153 18.3959 76.2007 18.4599 76.2007 18.5879C76.2007 18.6305 76.1793 18.7799 76.1367 19.0359C76.094 19.2919 76.03 19.6439 75.9447 20.0919C75.8593 20.5825 75.7527 21.1159 75.6247 21.6919C75.518 22.2679 75.39 22.8865 75.2407 23.5479L76.7447 21.0199C77.4913 19.7612 78.1207 19.1319 78.6327 19.1319C78.9527 19.1319 79.1233 19.3239 79.1447 19.7079C79.2087 20.6039 79.2513 21.4892 79.2727 22.3639C79.3153 23.2385 79.4327 23.9639 79.6247 24.5399C79.838 25.1159 80.2113 25.4039 80.7447 25.4039C81.1073 25.4039 81.4593 25.3292 81.8007 25.1799C82.1633 25.0305 82.5687 24.7532 83.0167 24.3479C83.4647 23.9212 83.998 23.3025 84.6167 22.4919C84.638 22.4492 84.6807 22.3959 84.7447 22.3319C84.8087 22.2679 84.8833 22.2359 84.9687 22.2359C85.054 22.2359 85.0967 22.2785 85.0967 22.3639C85.0967 22.4492 85.0433 22.5665 84.9367 22.7159C84.8513 22.8652 84.7873 22.9719 84.7447 23.0359C84.1687 23.8892 83.518 24.6039 82.7927 25.1799C82.0673 25.7559 81.3847 26.0439 80.7447 26.0439C79.806 26.0439 79.1127 25.5746 78.6647 24.6359C78.238 23.6759 77.9393 22.3212 77.7687 20.5719C77.4273 20.9345 77.022 21.4785 76.5527 22.2039C76.1047 22.9292 75.582 23.8572 74.9847 24.9879C74.942 25.0945 74.878 25.2226 74.7927 25.3719C74.7073 25.4999 74.6113 25.6705 74.5047 25.8839C74.4193 26.0759 74.302 26.1719 74.1527 26.1719Z" fill="white"/>
<path d="M101.168 30.1719C101.104 30.1719 101.062 30.0972 101.04 29.9479C101.04 29.8626 101.051 29.7132 101.072 29.4999C101.115 29.3079 101.158 29.0625 101.2 28.7639C101.307 27.9532 101.456 27.1212 101.648 26.2679C101.84 25.4359 102.054 24.5719 102.288 23.6759C101.99 23.4412 101.702 23.2279 101.424 23.0359C101.168 22.8439 100.923 22.6732 100.688 22.5239C98.8111 25.6172 96.5711 27.1639 93.9684 27.1639C93.5417 27.1639 93.1044 27.1212 92.6564 27.0359C92.2297 26.9719 91.7711 26.8652 91.2804 26.7159C90.9177 26.5879 90.7364 26.4599 90.7364 26.3319C90.7364 26.2679 90.8004 26.2359 90.9284 26.2359C90.9924 26.2359 91.1097 26.2572 91.2804 26.2999C92.1124 26.5559 92.9124 26.6839 93.6804 26.6839C96.1337 26.6839 98.1604 25.0732 99.7604 21.8519C97.7337 20.4652 95.9311 19.3879 94.3524 18.6199C93.0724 18.0012 91.7497 17.6919 90.3844 17.6919C87.4831 17.6919 85.6591 18.7585 84.9124 20.8919C84.7631 21.3185 84.6884 21.7559 84.6884 22.2039C84.6884 23.4412 85.2004 24.6252 86.2244 25.7559C87.1631 26.7799 88.1017 27.3879 89.0404 27.5799C89.2751 27.6226 89.3924 27.6972 89.3924 27.8039C89.3924 27.9532 89.2537 28.0279 88.9764 28.0279C88.9337 28.0279 88.8697 28.0279 88.7844 28.0279C88.7204 28.0279 88.6457 28.0172 88.5604 27.9959C87.4937 27.8039 86.5124 27.2599 85.6164 26.3639C84.6351 25.3185 84.1444 24.1132 84.1444 22.7479C84.1444 22.0652 84.2724 21.3612 84.5284 20.6359C85.0404 19.2492 85.9257 18.1825 87.1844 17.4359C88.3791 16.6892 89.7444 16.3159 91.2804 16.3159C92.4964 16.3159 93.6911 16.5612 94.8644 17.0519C96.5071 17.7132 98.3631 18.8225 100.432 20.3799C100.539 20.1665 100.656 19.8999 100.784 19.5799C100.912 19.2385 101.072 18.8439 101.264 18.3959L101.712 17.3719C100.368 17.0945 99.1097 16.5612 97.9364 15.7719C95.9524 14.4279 94.9604 12.7639 94.9604 10.7799C94.9604 9.88388 95.1844 9.13722 95.6324 8.53988C96.1017 7.94255 96.7204 7.64388 97.4884 7.64388C98.0217 7.64388 98.5017 7.80388 98.9284 8.12388C99.3551 8.44388 99.5684 8.85988 99.5684 9.37188V9.46788C99.5684 9.78788 99.4191 9.94788 99.1204 9.94788C98.6937 9.94788 98.4697 9.73455 98.4484 9.30788C98.2777 9.00922 97.9684 8.85988 97.5204 8.85988C97.4351 8.85988 97.3604 8.87055 97.2964 8.89188C97.2324 8.89188 97.1577 8.90255 97.0724 8.92388C95.9844 9.13721 95.4404 9.76655 95.4404 10.8119C95.4404 12.6252 96.3257 14.1612 98.0964 15.4199C99.1844 16.2092 100.454 16.6892 101.904 16.8599C104.486 10.6519 106.896 6.66255 109.136 4.89188C110.395 3.88922 111.622 3.38788 112.816 3.38788C113.883 3.38788 114.758 3.79322 115.44 4.60388C116.123 5.39322 116.464 6.38522 116.464 7.57988C116.464 9.30788 115.814 10.9292 114.512 12.4439C111.931 15.5159 108.72 17.2119 104.88 17.5319L104.208 19.2599C104.315 19.3025 104.475 19.3665 104.688 19.4519C104.923 19.5372 105.051 19.6332 105.072 19.7399C105.094 19.8039 104.603 20.2412 103.6 21.0519L103.568 21.0199C103.483 21.2545 103.398 21.4999 103.312 21.7559C103.248 22.0119 103.174 22.2572 103.088 22.4919C104.624 23.7292 106 24.7639 107.216 25.5959C108.432 26.4065 109.488 27.0359 110.384 27.4839C111.131 27.8252 111.952 27.9959 112.848 27.9959C113.446 27.9959 114 27.9212 114.512 27.7719C115.024 27.6439 115.504 27.4305 115.952 27.1319C116.848 26.5559 117.296 25.8092 117.296 24.8919C117.296 24.7852 117.275 24.6359 117.232 24.4439C117.19 24.2305 117.168 24.0705 117.168 23.9639C117.168 23.7932 117.222 23.7079 117.328 23.7079C117.584 23.7079 117.712 24.1665 117.712 25.0839C117.712 26.1719 117.222 27.0679 116.24 27.7719C115.259 28.4759 114.032 28.8279 112.56 28.8279C111.195 28.8279 109.883 28.4972 108.624 27.8359C108.07 27.5585 107.291 27.0892 106.288 26.4279C105.307 25.7879 104.091 24.9559 102.64 23.9319C102.299 25.0625 102.022 26.1185 101.808 27.0999C101.595 28.1025 101.435 29.0412 101.328 29.9159C101.286 30.0865 101.232 30.1719 101.168 30.1719ZM103.312 16.9239C103.547 16.9025 103.782 16.8812 104.016 16.8599C104.251 16.8385 104.475 16.8172 104.688 16.7959C105.115 15.8145 105.563 14.8012 106.032 13.7559C106.523 12.7105 107.035 11.6545 107.568 10.5879C109.318 7.23855 110.512 5.54255 111.152 5.49988C111.302 5.49988 111.376 5.57455 111.376 5.72388C111.376 5.80921 111.334 5.88388 111.248 5.94788C110.523 6.52388 109.648 7.70788 108.624 9.49988C107.622 11.2919 106.491 13.6919 105.232 16.6999C108.752 15.9959 111.6 14.2785 113.776 11.5479C114.992 10.0332 115.6 8.53988 115.6 7.06788C115.6 6.12922 115.355 5.36121 114.864 4.76388C114.395 4.16655 113.755 3.86788 112.944 3.86788C111.899 3.86788 110.768 4.40122 109.552 5.46788C108.336 6.51321 107.163 8.17721 106.032 10.4599C105.819 10.9079 105.478 11.6759 105.008 12.7639C104.56 13.8305 103.995 15.2172 103.312 16.9239ZM102.736 22.2039L103.216 20.7319C103.088 20.6039 103.003 20.4759 102.96 20.3479C102.918 20.2199 102.886 20.1132 102.864 20.0279C102.864 19.8572 102.96 19.6012 103.152 19.2599C103.366 18.8972 103.611 18.7159 103.888 18.7159H103.92C104.006 18.5452 104.08 18.3639 104.144 18.1719C104.23 17.9585 104.315 17.7452 104.4 17.5319C103.931 17.5532 103.483 17.5532 103.056 17.5319C102.758 18.2572 102.47 18.9292 102.192 19.5479C101.915 20.1452 101.659 20.6892 101.424 21.1799C101.595 21.2865 101.787 21.4252 102 21.5959C102.214 21.7665 102.459 21.9692 102.736 22.2039Z" fill="white"/>
<path d="M115.101 26.0759C114.227 26.0759 113.789 25.6492 113.789 24.7959C113.789 23.9852 114.376 22.8545 115.549 21.4039C116.616 20.0599 117.544 19.1319 118.333 18.6199C119.123 18.1079 119.859 17.8519 120.541 17.8519C121.352 17.8519 121.757 18.0865 121.757 18.5559C121.757 18.6625 121.651 18.8225 121.437 19.0359C121.224 19.2279 121.107 19.3452 121.085 19.3879C120.68 20.0492 120.477 21.3932 120.477 23.4199C120.477 24.5932 120.733 25.1799 121.245 25.1799C121.715 25.1799 122.259 24.9025 122.877 24.3479C123.496 23.7932 124.072 23.1745 124.605 22.4919C124.669 22.4279 124.723 22.3959 124.765 22.3959C124.851 22.3959 124.893 22.4492 124.893 22.5559C124.893 22.5985 124.872 22.6732 124.829 22.7799C124.808 22.8865 124.776 22.9719 124.733 23.0359C123.859 24.2092 123.101 24.9985 122.461 25.4039C121.843 25.8092 121.235 26.0119 120.637 26.0119C119.677 26.0119 119.208 24.9879 119.229 22.9399C118.824 23.6652 118.237 24.3479 117.469 24.9879C116.573 25.7132 115.784 26.0759 115.101 26.0759ZM115.965 25.2119C116.328 25.2119 116.712 25.0625 117.117 24.7639C118.376 23.7612 119.197 21.8839 119.581 19.1319C119.517 19.1319 119.475 19.1212 119.453 19.0999C119.027 19.0999 118.461 19.3559 117.757 19.8679C117.16 20.2732 116.68 20.7105 116.317 21.1799C115.464 22.2892 115.037 23.2492 115.037 24.0599C115.037 24.8279 115.347 25.2119 115.965 25.2119Z" fill="white"/>
<path d="M126.193 26.1719C125.084 26.1719 124.529 25.3612 124.529 23.7399C124.529 22.0545 125.137 19.7292 126.353 16.7639C126.822 15.6332 127.324 14.5132 127.857 13.4039C128.39 12.2945 128.956 11.2172 129.553 10.1719C129.766 9.80922 130.033 9.38255 130.353 8.89188C130.673 8.40122 131.068 7.85722 131.537 7.25988C131.686 7.11055 131.921 7.03588 132.241 7.03588C132.796 7.03588 133.073 7.15321 133.073 7.38788C133.073 7.43055 133.052 7.49455 133.009 7.57988C132.668 7.98521 132.284 8.49721 131.857 9.11588C131.452 9.73455 130.993 10.4705 130.481 11.3239C129.82 12.4759 129.222 13.5425 128.689 14.5239C128.156 15.4839 127.708 16.3799 127.345 17.2119C126.684 18.6839 126.182 20.0065 125.841 21.1799C125.521 22.3319 125.361 23.3132 125.361 24.1239C125.361 25.1052 125.724 25.5959 126.449 25.5959C126.812 25.5959 127.174 25.4039 127.537 25.0199C127.921 24.6145 128.305 24.0919 128.689 23.4519C128.412 23.0892 128.22 22.6839 128.113 22.2359C128.006 21.7665 127.953 21.2119 127.953 20.5719C127.953 19.3345 128.284 18.7159 128.945 18.7159C129.564 18.7159 129.873 19.3132 129.873 20.5079C129.873 21.6812 129.713 22.6412 129.393 23.3879C129.713 23.6439 130.076 23.7719 130.481 23.7719C130.844 23.7719 131.217 23.6545 131.601 23.4199C132.006 23.1852 132.348 22.8759 132.625 22.4919C132.668 22.4492 132.732 22.4279 132.817 22.4279C132.881 22.4279 132.913 22.4919 132.913 22.6199C132.913 22.6412 132.892 22.7052 132.849 22.8119C132.828 22.9185 132.796 22.9932 132.753 23.0359C132.476 23.4199 132.124 23.7185 131.697 23.9319C131.27 24.1239 130.844 24.2199 130.417 24.2199C129.905 24.2199 129.5 24.0919 129.201 23.8359C128.198 25.3932 127.196 26.1719 126.193 26.1719Z" fill="white"/>
<path d="M139.12 26.0119C138.523 26.0119 138.107 25.7879 137.872 25.3399C137.638 24.8919 137.52 24.2519 137.52 23.4199C137.52 23.3132 137.52 23.2065 137.52 23.0999C137.52 22.9719 137.531 22.8545 137.552 22.7479C137.232 23.3665 136.71 23.9745 135.984 24.5719C135.195 25.2759 134.502 25.6279 133.904 25.6279C133.52 25.6279 133.179 25.4039 132.88 24.9559C132.646 24.5292 132.528 24.1025 132.528 23.6759C132.528 22.9505 132.71 22.1292 133.072 21.2119C133.456 20.0599 133.947 19.4839 134.544 19.4839C134.758 19.4839 134.875 19.6226 134.896 19.8999C134.064 21.3292 133.648 22.4705 133.648 23.3239C133.648 24.1559 133.904 24.5719 134.416 24.5719C135.504 24.5719 136.688 23.3985 137.968 21.0519C138.011 20.9239 138.075 20.7745 138.16 20.6039C138.267 20.4119 138.384 20.2092 138.512 19.9959C138.576 19.8039 138.864 19.7079 139.376 19.7079C139.547 19.7079 139.632 19.7719 139.632 19.8999L139.28 20.8919C139.11 21.3612 138.992 21.8092 138.928 22.2359C138.864 22.6625 138.832 23.0572 138.832 23.4199C138.832 24.5932 139.11 25.1799 139.664 25.1799C140.091 25.1799 140.614 24.9132 141.232 24.3799C141.872 23.8465 142.459 23.2172 142.992 22.4919C143.056 22.4279 143.11 22.3959 143.152 22.3959C143.238 22.3959 143.28 22.4705 143.28 22.6199C143.28 22.7692 143.227 22.9079 143.12 23.0359C142.267 24.1665 141.51 24.9452 140.848 25.3719C140.208 25.7986 139.632 26.0119 139.12 26.0119Z" fill="white"/>
<path d="M143.351 26.0759C142.477 26.0759 142.039 25.6492 142.039 24.7959C142.039 23.9852 142.626 22.8545 143.799 21.4039C144.866 20.0599 145.794 19.1319 146.583 18.6199C147.373 18.1079 148.109 17.8519 148.791 17.8519C149.602 17.8519 150.007 18.0865 150.007 18.5559C150.007 18.6625 149.901 18.8225 149.687 19.0359C149.474 19.2279 149.357 19.3452 149.335 19.3879C148.93 20.0492 148.727 21.3932 148.727 23.4199C148.727 24.5932 148.983 25.1799 149.495 25.1799C149.965 25.1799 150.509 24.9025 151.127 24.3479C151.746 23.7932 152.322 23.1745 152.855 22.4919C152.919 22.4279 152.973 22.3959 153.015 22.3959C153.101 22.3959 153.143 22.4492 153.143 22.5559C153.143 22.5985 153.122 22.6732 153.079 22.7799C153.058 22.8865 153.026 22.9719 152.983 23.0359C152.109 24.2092 151.351 24.9985 150.711 25.4039C150.093 25.8092 149.485 26.0119 148.887 26.0119C147.927 26.0119 147.458 24.9879 147.479 22.9399C147.074 23.6652 146.487 24.3479 145.719 24.9879C144.823 25.7132 144.034 26.0759 143.351 26.0759ZM144.215 25.2119C144.578 25.2119 144.962 25.0625 145.367 24.7639C146.626 23.7612 147.447 21.8839 147.831 19.1319C147.767 19.1319 147.725 19.1212 147.703 19.0999C147.277 19.0999 146.711 19.3559 146.007 19.8679C145.41 20.2732 144.93 20.7105 144.567 21.1799C143.714 22.2892 143.287 23.2492 143.287 24.0599C143.287 24.8279 143.597 25.2119 144.215 25.2119Z" fill="white"/>
<path d="M152.715 26.1719C152.566 26.1719 152.406 26.0759 152.235 25.8839C152.086 25.6919 152.011 25.5212 152.011 25.3719V25.2759L152.299 24.7319C152.47 24.2412 152.64 23.6545 152.811 22.9719C152.982 22.2679 153.142 21.4679 153.291 20.5719C153.312 20.3585 153.344 20.1345 153.387 19.8999C153.43 19.6439 153.473 19.3559 153.515 19.0359C153.622 18.6092 153.952 18.3959 154.507 18.3959C154.678 18.3959 154.763 18.4599 154.763 18.5879C154.763 18.6305 154.742 18.7799 154.699 19.0359C154.656 19.2919 154.592 19.6439 154.507 20.0919C154.422 20.5825 154.315 21.1159 154.187 21.6919C154.08 22.2679 153.952 22.8865 153.803 23.5479L155.307 21.0199C156.054 19.7612 156.683 19.1319 157.195 19.1319C157.515 19.1319 157.686 19.3239 157.707 19.7079C157.771 20.6039 157.814 21.4892 157.835 22.3639C157.878 23.2385 157.995 23.9639 158.187 24.5399C158.4 25.1159 158.774 25.4039 159.307 25.4039C159.67 25.4039 160.022 25.3292 160.363 25.1799C160.726 25.0305 161.131 24.7532 161.579 24.3479C162.027 23.9212 162.56 23.3025 163.179 22.4919C163.2 22.4492 163.243 22.3959 163.307 22.3319C163.371 22.2679 163.446 22.2359 163.531 22.2359C163.616 22.2359 163.659 22.2785 163.659 22.3639C163.659 22.4492 163.606 22.5665 163.499 22.7159C163.414 22.8652 163.35 22.9719 163.307 23.0359C162.731 23.8892 162.08 24.6039 161.355 25.1799C160.63 25.7559 159.947 26.0439 159.307 26.0439C158.368 26.0439 157.675 25.5746 157.227 24.6359C156.8 23.6759 156.502 22.3212 156.331 20.5719C155.99 20.9345 155.584 21.4785 155.115 22.2039C154.667 22.9292 154.144 23.8572 153.547 24.9879C153.504 25.0945 153.44 25.2226 153.355 25.3719C153.27 25.4999 153.174 25.6705 153.067 25.8839C152.982 26.0759 152.864 26.1719 152.715 26.1719Z" fill="white"/>
</svg>
